Coordinates
version=1
nRows=25
nColumns=33
inDegrees=yes

Units are S.I. units (second, meters, Newtons, ...)
Angles are in degrees.

endheader
time	ground_thorax_rot_x	ground_thorax_rot_y	ground_thorax_rot_z	ground_thorax_tx	ground_thorax_ty	ground_thorax_tz	clav_prot_r	clav_elev_r	scapula_abduction_r	scapula_elevation_r	scapula_upward_rot_r	scapula_winging_r	shoulder_elv_r	plane_of_elev_r	axial_rot_r	elbow_flexion_r	pro_sup_r	wrist_flex_r	wrist_dev_r	clav_prot_l	clav_elev_l	scapula_abduction_l	scapula_elevation_l	scapula_upward_rot_l	scapula_winging_l	shoulder_elv_l	plane_of_elev_l	axial_rot_l	elbow_flexion_l	pro_sup_l	wrist_flex_l	wrist_dev_l	
8.3900	29.792818	29.609868	34.321400	-98.455826	778.234887	8.795217	14.627334	45.000000	45.000000	42.722103	45.000000	-3271.037428	-1238.058594	-90.000000	-88.801353	2155.600617	-104.435177	19.665973	12.727709	11.809174	-45.000000	-41.695462	45.000000	-45.000000	2251.319827	-2090.955310	20.151532	-54.739889	1449.652100	30.484024	6.829153	-19.652182	
8.4000	30.005530	29.615289	34.091206	-100.556140	779.161395	8.667618	14.617686	45.000000	45.000000	42.984361	45.000000	-3271.037567	-1238.153226	-90.000000	-88.691086	2155.543397	-104.835424	19.739614	12.843618	11.830766	-45.000000	-41.724490	45.000000	-45.000000	2251.466022	-2090.835156	20.211257	-54.619120	1449.793242	30.544644	6.707953	-19.706485	
8.4100	30.223280	29.622900	33.854628	-102.734528	780.149966	8.542163	14.605334	45.000000	45.000000	43.252124	45.000000	-3271.036532	-1238.272301	-90.000000	-88.556329	2155.462653	-105.257048	19.811742	12.961588	11.854256	-45.000000	-41.754181	45.000000	-45.000000	2251.612827	-2090.704865	20.271341	-54.490806	1449.930566	30.598939	6.586893	-19.758975	
8.4200	30.445626	29.625166	33.605738	-104.989817	781.197512	8.419584	14.590097	45.000000	45.000000	43.520096	45.000000	-3271.037218	-1238.412918	-90.000000	-88.399981	2155.359020	-105.700340	19.885313	13.082781	11.881639	-45.000000	-41.791569	45.000000	-45.000000	2251.769267	-2090.564869	20.337786	-54.368288	1450.069995	30.644172	6.466236	-19.810581	
8.4300	30.669312	29.621197	33.356246	-107.319370	782.300640	8.300496	14.572266	45.000000	45.000000	43.782747	45.000000	-3271.029139	-1238.574726	-90.000000	-88.222321	2155.233605	-106.164341	19.949723	13.203471	11.914538	-45.000000	-41.821248	45.000000	-45.000000	2251.927835	-2090.408531	20.399562	-54.235653	1450.201530	30.677601	6.348139	-19.859706	
8.4400	30.894576	29.603070	33.099036	-109.719463	783.455921	8.185320	14.552204	45.000000	45.000000	44.034580	45.000000	-3271.016238	-1238.754532	-90.000000	-88.026507	2155.086540	-106.648218	20.009039	13.324952	11.955437	-45.000000	-41.848278	45.000000	-45.000000	2252.096967	-2090.237670	20.463371	-54.101753	1450.330807	30.697318	6.232920	-19.907610	
8.4500	31.121446	29.569989	32.831739	-112.185656	784.660072	8.074215	14.530542	45.000000	45.000000	44.273761	45.000000	-3270.997733	-1238.943918	-90.000000	-87.820962	2154.922968	-107.149516	20.066136	13.447940	11.994914	-45.000000	-41.873337	45.000000	-45.000000	2252.272943	-2090.055324	20.527612	-53.951563	1450.453894	30.700519	6.121457	-19.953826	
8.4600	31.354629	29.515791	32.538092	-114.713150	785.910026	7.967031	14.507932	45.000000	45.000000	44.491080	45.000000	-3270.968357	-1239.131438	-90.000000	-87.617231	2154.749400	-107.664895	20.128786	13.575130	12.023855	-45.000000	-41.902782	45.000000	-45.000000	2252.456842	-2089.865351	20.601280	-53.783781	1450.576292	30.683548	6.014189	-19.999843	
8.4700	31.587125	29.440648	32.229786	-117.297005	787.202924	7.863287	14.484099	45.000000	45.000000	44.674201	45.000000	-3270.912320	-1239.311218	-90.000000	-87.421243	2154.573128	-108.190468	20.188450	13.703660	12.047848	-45.000000	-41.930724	45.000000	-45.000000	2252.647111	-2089.665327	20.681023	-53.581711	1450.686749	30.643107	5.914562	-20.044255	
8.4800	31.816423	29.344611	31.906207	-119.932034	788.535972	7.762244	14.458500	45.000000	45.000000	44.815974	45.000000	-3270.825744	-1239.481716	-90.000000	-87.234552	2154.394228	-108.725194	20.244770	13.832741	12.073238	-45.000000	-41.960464	45.000000	-45.000000	2252.847406	-2089.454213	20.769401	-53.357327	1450.788598	30.574429	5.824235	-20.087986	
8.4900	32.039365	29.225918	31.573466	-122.613009	789.906523	7.663010	14.430609	45.000000	45.000000	44.914657	45.000000	-3270.705139	-1239.643653	-90.000000	-87.056399	2154.220936	-109.267889	20.292796	13.962174	12.103103	-45.000000	-41.988406	45.000000	-45.000000	2253.058240	-2089.231878	20.864596	-53.101953	1450.875894	30.469424	5.744163	-20.129456	
8.5000	32.258851	29.082709	31.231376	-125.334454	791.311989	7.564712	14.400137	45.000000	45.000000	44.972317	45.000000	-3270.548589	-1239.805517	-90.000000	-86.878179	2154.052130	-109.820617	20.325046	14.089941	12.141834	-45.000000	-41.999976	45.000000	-45.000000	2253.275186	-2088.994292	20.962986	-52.822769	1450.950072	30.316866	5.675247	-20.168525	
8.5100	32.472757	28.915515	30.888401	-128.090891	792.750007	7.466646	14.367074	45.000000	45.000000	44.995885	45.000000	-3270.362248	-1239.974666	-90.000000	-86.692376	2153.886612	-110.386966	20.336131	14.215032	12.196174	-45.000000	-41.989725	45.000000	-45.000000	2253.499992	-2088.743819	21.061777	-52.518033	1451.007272	30.104466	5.619464	-20.204415	
8.5200	32.685777	28.729454	30.535651	-130.876758	794.218482	7.368389	14.332184	45.000000	45.000000	45.000000	45.000000	-3270.163157	-1240.149490	-90.000000	-86.500530	2153.716763	-110.972877	20.338621	14.340320	12.255100	-45.000000	-41.971364	45.000000	-45.000000	2253.730719	-2088.486404	21.160307	-52.207195	1451.054851	29.820063	5.578340	-20.239209	
8.5300	32.904759	28.530467	30.164718	-133.686678	795.715723	7.269822	14.296861	45.000000	45.000000	45.000000	45.000000	-3269.958712	-1240.315566	-90.000000	-86.317116	2153.551277	-111.580042	20.340220	14.469333	12.305563	-45.000000	-41.956192	45.000000	-45.000000	2253.962500	-2088.230720	21.261755	-51.885850	1451.093474	29.451637	5.552080	-20.273025	
8.5400	33.130710	28.321524	29.776454	-136.515435	797.240382	7.171091	14.261498	45.000000	45.000000	45.000000	45.000000	-3269.753438	-1240.465514	-90.000000	-86.149567	2153.390555	-112.210128	20.339255	14.600715	12.348030	-45.000000	-41.941173	45.000000	-45.000000	2254.193531	-2087.977138	21.363507	-51.574424	1451.126556	28.990938	5.540419	-20.306262	
8.5500	33.362557	28.104900	29.375759	-139.358003	798.791323	7.072510	14.226256	45.000000	45.000000	45.000000	45.000000	-3269.543978	-1240.589970	-90.000000	-86.007290	2153.241217	-112.862626	20.331892	14.733782	12.385240	-45.000000	-41.925557	45.000000	-45.000000	2254.424587	-2087.727367	21.466617	-51.269710	1451.151793	28.431812	5.542788	-20.337951	
8.5600	33.595177	27.883345	28.967895	-142.209521	800.367405	6.974453	14.190868	45.000000	45.000000	45.000000	45.000000	-3269.335248	-1240.685129	-90.000000	-85.894132	2153.105845	-113.537092	20.321203	14.869168	12.419913	-45.000000	-41.916241	45.000000	-45.000000	2254.658681	-2087.482238	21.568170	-50.993418	1451.170243	27.774728	5.559656	-20.368572	
8.5700	33.829738	27.656351	28.554702	-145.065220	801.967219	6.877259	14.155429	45.000000	45.000000	45.000000	45.000000	-3269.120168	-1240.747426	-90.000000	-85.813669	2152.995480	-114.229440	20.302485	15.006636	12.451186	-45.000000	-41.906064	45.000000	-45.000000	2254.890796	-2087.240564	21.665870	-50.737954	1451.179029	27.021533	5.589349	-20.396857	
8.5800	34.062225	27.424668	28.141502	-147.920384	803.588874	6.781186	14.119402	45.000000	45.000000	45.000000	45.000000	-3268.902764	-1240.781790	-90.000000	-85.760914	2152.909646	-114.936126	20.272819	15.144041	12.485461	-45.000000	-41.892578	45.000000	-45.000000	2255.121519	-2087.003373	21.756986	-50.517066	1451.176428	26.178383	5.630860	-20.422027	
8.5900	34.290106	27.187885	27.731959	-150.770318	805.229911	6.686417	14.082807	45.000000	45.000000	45.000000	45.000000	-3268.684359	-1240.791618	-90.000000	-85.732437	2152.849551	-115.651038	20.236328	15.281763	12.520495	-45.000000	-41.879142	45.000000	-45.000000	2255.352905	-2086.771212	21.837943	-50.335142	1451.164535	25.255170	5.684630	-20.445355	
8.6000	34.510011	26.948062	27.327242	-153.610278	806.887287	6.593106	14.045985	45.000000	45.000000	45.000000	45.000000	-3268.469717	-1240.775736	-90.000000	-85.729417	2152.813715	-116.366174	20.200994	15.419845	12.551588	-45.000000	-41.873703	45.000000	-45.000000	2255.584561	-2086.545914	21.906406	-50.191805	1451.143880	24.265027	5.750907	-20.467972	
8.6100	34.724802	26.703776	26.922241	-156.435436	808.557490	6.501447	14.008978	45.000000	45.000000	45.000000	45.000000	-3268.256414	-1240.731270	-90.000000	-85.754687	2152.803285	-117.071545	20.167359	15.555875	12.575072	-45.000000	-41.872964	45.000000	-45.000000	2255.809133	-2086.329415	21.962078	-50.075742	1451.111456	23.219346	5.824931	-20.488201	
8.6200	34.935092	26.456899	26.514406	-159.241025	810.236790	6.411741	13.971581	45.000000	45.000000	45.000000	45.000000	-3268.044941	-1240.658660	-90.000000	-85.807676	2152.814918	-117.758162	20.135389	15.686434	12.589793	-45.000000	-41.873651	45.000000	-45.000000	2256.022654	-2086.122612	22.006041	-49.983022	1451.066080	22.126625	5.900741	-20.504081	
8.6300	35.139752	26.207819	26.104308	-162.022495	811.921475	6.324432	13.933804	45.000000	45.000000	45.000000	45.000000	-3267.836703	-1240.562605	-90.000000	-85.883524	2152.846162	-118.417195	20.109053	15.810442	12.594732	-45.000000	-41.877010	45.000000	-45.000000	2256.225893	-2085.925005	22.036548	-49.916012	1451.012105	20.994753	5.975015	-20.516135	
